# xmcd
#
# Track frame offsets:
#	150
#	19989
#	35048
#	48947
#	67861
#	89370
#	102550
#	122164
#	143782
#	158683
#	173477
#	187134
#	199081
#	214889
#	228701
#	242529
#
# Disc length: 3436 seconds
#
# Revision: 0
# Processed by: cddbd v1.5.2PL0 Copyright (c) Steve Scherf et al.
# Submitted via: audiograbber 1.83.01
#
DISCID=e20d6a10
DTITLE=All Our Friends Are Dead - The Last Album
DYEAR=2012
DGENRE=R&B
TTITLE0=Do It Again
TTITLE1=I Feel Free
TTITLE2=Stuck In The Middle With You
TTITLE3=Tomorrow Never Knows
TTITLE4=Let Me Roll It
TTITLE5=Don't Let Me Bring You Down
TTITLE6=The Wight
TTITLE7=Jersey Girl
TTITLE8=Late Again
TTITLE9=Albatross
TTITLE10=Lying Eyes
TTITLE11=Brown Eyed Girl
TTITLE12=The More I See You
TTITLE13=Oye Como Va
TTITLE14=Out On The Weekend
TTITLE15=Hidden Track
EXTD=
EXTT0=
EXTT1=
EXTT2=
EXTT3=
EXTT4=
EXTT5=
EXTT6=
EXTT7=
EXTT8=
EXTT9=
EXTT10=Live at Bauer Becks
EXTT11=Live at Bauer Becks\n
EXTT12=Live at Bauer Becks\n
EXTT13=
EXTT14=Live at Bauer Becks\n
EXTT15=
PLAYORDER=
